<?xml version="1.0" encoding="UTF-8" standalone="no"?>
<!DOCTYPE svg PUBLIC "-//W3C//DTD SVG 1.1//EN"
 "http://www.w3.org/Graphics/SVG/1.1/DTD/svg11.dtd">
<!-- Generated by graphviz version 14.1.1 (20251213.1925)
 -->
<!-- Title: AgentShelfWorkflow Pages: 1 -->
<svg width="689pt" height="1089pt"
 viewBox="0.00 0.00 689.00 1089.00" xmlns="http://www.w3.org/2000/svg" xmlns:xlink="http://www.w3.org/1999/xlink">
<g id="graph0" class="graph" transform="scale(1 1) rotate(0) translate(25.2 1063.32)">
<title>AgentShelfWorkflow</title>
<polygon fill="#fff8e7" stroke="none" points="-25.2,25.2 -25.2,-1063.32 663.8,-1063.32 663.8,25.2 -25.2,25.2"/>
<!-- start -->
<g id="node1" class="node">
<title>start</title>
<ellipse fill="#1dd1a1" stroke="#111111" stroke-width="2.4" cx="447.6" cy="-1015.74" rx="109.63" ry="22.38"/>
<text xml:space="preserve" text-anchor="middle" x="447.6" y="-1012.96" font-family="PingFang SC" font-size="12.00">开始：创建跨境上新任务</text>
</g>
<!-- upload -->
<g id="node2" class="node">
<title>upload</title>
<polygon fill="#48dbfb" stroke="#111111" stroke-width="2.4" points="555.6,-956.36 339.6,-956.36 339.6,-920.36 555.6,-920.36 555.6,-956.36"/>
<text xml:space="preserve" text-anchor="middle" x="447.6" y="-935.58" font-family="PingFang SC" font-size="12.00">01 导入 CSV、商品图片和政策资料</text>
</g>
<!-- start&#45;&gt;upload -->
<g id="edge1" class="edge">
<title>start&#45;&gt;upload</title>
<path fill="none" stroke="#111111" stroke-width="1.8" d="M447.6,-992.52C447.6,-992.52 447.6,-967.12 447.6,-967.12"/>
<polygon fill="#111111" stroke="#111111" stroke-width="1.8" points="450.05,-967.12 447.6,-960.12 445.15,-967.12 450.05,-967.12"/>
</g>
<!-- passport -->
<g id="node3" class="node">
<title>passport</title>
<polygon fill="#feca57" stroke="#111111" stroke-width="2.4" points="555.6,-883.36 339.6,-883.36 339.6,-834.46 555.6,-834.46 555.6,-883.36"/>
<text xml:space="preserve" text-anchor="middle" x="447.6" y="-864.76" font-family="PingFang SC" font-size="12.00">02 生成 Product Passport</text>
<text xml:space="preserve" text-anchor="middle" x="447.6" y="-847.51" font-family="PingFang SC" font-size="12.00">保存来源、冲突、未知项和版本</text>
</g>
<!-- upload&#45;&gt;passport -->
<g id="edge2" class="edge">
<title>upload&#45;&gt;passport</title>
<path fill="none" stroke="#111111" stroke-width="1.8" d="M447.6,-919.53C447.6,-919.53 447.6,-894.24 447.6,-894.24"/>
<polygon fill="#111111" stroke="#111111" stroke-width="1.8" points="450.05,-894.24 447.6,-887.24 445.15,-894.24 450.05,-894.24"/>
</g>
<!-- factcheck -->
<g id="node4" class="node">
<title>factcheck</title>
<polygon fill="#ff9ff3" stroke="#111111" stroke-width="2.4" points="365.6,-797.46 246.56,-748.56 365.6,-699.66 484.64,-748.56 365.6,-797.46"/>
<text xml:space="preserve" text-anchor="middle" x="365.6" y="-754.41" font-family="PingFang SC" font-size="12.00">资料是否足够且无</text>
<text xml:space="preserve" text-anchor="middle" x="365.6" y="-737.16" font-family="PingFang SC" font-size="12.00">未处理冲突？</text>
</g>
<!-- passport&#45;&gt;factcheck -->
<g id="edge3" class="edge">
<title>passport&#45;&gt;factcheck</title>
<path fill="none" stroke="#111111" stroke-width="1.8" d="M412.12,-833.32C412.12,-833.32 412.12,-789.24 412.12,-789.24"/>
<polygon fill="#111111" stroke="#111111" stroke-width="1.8" points="414.57,-789.24 412.12,-782.24 409.67,-789.24 414.57,-789.24"/>
</g>
<!-- supplement -->
<g id="node5" class="node">
<title>supplement</title>
<polygon fill="#ff6b6b" stroke="#111111" stroke-width="2.4" points="638.6,-648.66 422.6,-648.66 422.6,-612.66 638.6,-612.66 638.6,-648.66"/>
<text xml:space="preserve" text-anchor="middle" x="530.6" y="-627.88" font-family="PingFang SC" font-size="12.00">补充资料或人工确认</text>
</g>
<!-- factcheck&#45;&gt;supplement -->
<g id="edge5" class="edge">
<title>factcheck&#45;&gt;supplement</title>
<path fill="none" stroke="#111111" stroke-width="1.8" d="M453.62,-734.57C453.62,-734.57 453.62,-659.41 453.62,-659.41"/>
<polygon fill="#111111" stroke="#111111" stroke-width="1.8" points="456.07,-659.41 453.62,-652.41 451.17,-659.41 456.07,-659.41"/>
<text xml:space="preserve" text-anchor="middle" x="440.48" y="-672.16" font-family="PingFang SC" font-size="10.00">否</text>
</g>
<!-- config -->
<g id="node6" class="node">
<title>config</title>
<polygon fill="#48dbfb" stroke="#111111" stroke-width="2.4" points="399.6,-648.66 183.6,-648.66 183.6,-612.66 399.6,-612.66 399.6,-648.66"/>
<text xml:space="preserve" text-anchor="middle" x="291.6" y="-627.88" font-family="PingFang SC" font-size="12.00">03 选择平台、市场、语言和品类</text>
</g>
<!-- factcheck&#45;&gt;config -->
<g id="edge4" class="edge">
<title>factcheck&#45;&gt;config</title>
<path fill="none" stroke="#111111" stroke-width="1.8" d="M323.08,-716.03C323.08,-716.03 323.08,-659.55 323.08,-659.55"/>
<polygon fill="#111111" stroke="#111111" stroke-width="1.8" points="325.53,-659.55 323.08,-652.55 320.63,-659.55 325.53,-659.55"/>
<text xml:space="preserve" text-anchor="middle" x="333.48" y="-672.16" font-family="PingFang SC" font-size="10.00">是</text>
</g>
<!-- supplement&#45;&gt;passport -->
<g id="edge6" class="edge">
<title>supplement&#45;&gt;passport</title>
<path fill="none" stroke="#111111" stroke-width="1.8" d="M520.12,-649.73C520.12,-649.73 520.12,-823.85 520.12,-823.85"/>
<polygon fill="#111111" stroke="#111111" stroke-width="1.8" points="517.67,-823.85 520.12,-830.85 522.57,-823.85 517.67,-823.85"/>
<text xml:space="preserve" text-anchor="middle" x="550.1" y="-746.56" font-family="PingFang SC" font-size="10.00">重新整理</text>
</g>
<!-- listing -->
<g id="node7" class="node">
<title>listing</title>
<polygon fill="#feca57" stroke="#111111" stroke-width="2.4" points="399.6,-575.66 183.6,-575.66 183.6,-526.76 399.6,-526.76 399.6,-575.66"/>
<text xml:space="preserve" text-anchor="middle" x="291.6" y="-557.06" font-family="PingFang SC" font-size="12.00">04 生成本地化 Listing</text>
<text xml:space="preserve" text-anchor="middle" x="291.6" y="-539.81" font-family="PingFang SC" font-size="12.00">每条卖点绑定可信来源</text>
</g>
<!-- config&#45;&gt;listing -->
<g id="edge7" class="edge">
<title>config&#45;&gt;listing</title>
<path fill="none" stroke="#111111" stroke-width="1.8" d="M291.6,-611.83C291.6,-611.83 291.6,-586.54 291.6,-586.54"/>
<polygon fill="#111111" stroke="#111111" stroke-width="1.8" points="294.05,-586.54 291.6,-579.54 289.15,-586.54 294.05,-586.54"/>
</g>
<!-- preflight -->
<g id="node8" class="node">
<title>preflight</title>
<polygon fill="#ff9ff3" stroke="#111111" stroke-width="2.4" points="399.6,-489.76 183.6,-489.76 183.6,-453.76 399.6,-453.76 399.6,-489.76"/>
<text xml:space="preserve" text-anchor="middle" x="291.6" y="-468.98" font-family="PingFang SC" font-size="12.00">05 执行平台发布前检查</text>
</g>
<!-- listing&#45;&gt;preflight -->
<g id="edge8" class="edge">
<title>listing&#45;&gt;preflight</title>
<path fill="none" stroke="#111111" stroke-width="1.8" d="M291.6,-525.63C291.6,-525.63 291.6,-500.46 291.6,-500.46"/>
<polygon fill="#111111" stroke="#111111" stroke-width="1.8" points="294.05,-500.46 291.6,-493.46 289.15,-500.46 294.05,-500.46"/>
</g>
<!-- redteam -->
<g id="node9" class="node">
<title>redteam</title>
<polygon fill="#ff6b6b" stroke="#111111" stroke-width="2.4" points="399.6,-416.76 183.6,-416.76 183.6,-367.86 399.6,-367.86 399.6,-416.76"/>
<text xml:space="preserve" text-anchor="middle" x="291.6" y="-398.16" font-family="PingFang SC" font-size="12.00">06 运行 30 个买家任务</text>
<text xml:space="preserve" text-anchor="middle" x="291.6" y="-380.91" font-family="PingFang SC" font-size="12.00">和受控故障测试</text>
</g>
<!-- preflight&#45;&gt;redteam -->
<g id="edge9" class="edge">
<title>preflight&#45;&gt;redteam</title>
<path fill="none" stroke="#111111" stroke-width="1.8" d="M291.6,-452.93C291.6,-452.93 291.6,-427.64 291.6,-427.64"/>
<polygon fill="#111111" stroke="#111111" stroke-width="1.8" points="294.05,-427.64 291.6,-420.64 289.15,-427.64 294.05,-427.64"/>
</g>
<!-- pass -->
<g id="node10" class="node">
<title>pass</title>
<polygon fill="#48dbfb" stroke="#111111" stroke-width="2.4" points="215.6,-330.86 108.56,-299.21 215.6,-267.56 322.64,-299.21 215.6,-330.86"/>
<text xml:space="preserve" text-anchor="middle" x="215.6" y="-296.43" font-family="PingFang SC" font-size="12.00">是否全部通过？</text>
</g>
<!-- redteam&#45;&gt;pass -->
<g id="edge10" class="edge">
<title>redteam&#45;&gt;pass</title>
<path fill="none" stroke="#111111" stroke-width="1.8" d="M253.12,-366.87C253.12,-366.87 253.12,-330.56 253.12,-330.56"/>
<polygon fill="#111111" stroke="#111111" stroke-width="1.8" points="255.57,-330.56 253.12,-323.56 250.67,-330.56 255.57,-330.56"/>
</g>
<!-- repair -->
<g id="node11" class="node">
<title>repair</title>
<polygon fill="#1dd1a1" stroke="#111111" stroke-width="2.4" points="476.6,-216.56 260.6,-216.56 260.6,-167.66 476.6,-167.66 476.6,-216.56"/>
<text xml:space="preserve" text-anchor="middle" x="368.6" y="-197.96" font-family="PingFang SC" font-size="12.00">07 生成修复版本</text>
<text xml:space="preserve" text-anchor="middle" x="368.6" y="-180.71" font-family="PingFang SC" font-size="12.00">保留原始资料和结构化差异</text>
</g>
<!-- pass&#45;&gt;repair -->
<g id="edge12" class="edge">
<title>pass&#45;&gt;repair</title>
<path fill="none" stroke="#111111" stroke-width="1.8" d="M291.62,-288.94C291.62,-288.94 291.62,-227.14 291.62,-227.14"/>
<polygon fill="#111111" stroke="#111111" stroke-width="1.8" points="294.07,-227.14 291.62,-220.14 289.17,-227.14 294.07,-227.14"/>
<text xml:space="preserve" text-anchor="middle" x="283.48" y="-240.06" font-family="PingFang SC" font-size="10.00">否</text>
</g>
<!-- approval -->
<g id="node12" class="node">
<title>approval</title>
<polygon fill="#feca57" stroke="#111111" stroke-width="2.4" points="237.5,-210.11 15.71,-210.11 15.71,-174.11 237.5,-174.11 237.5,-210.11"/>
<text xml:space="preserve" text-anchor="middle" x="126.6" y="-189.33" font-family="PingFang SC" font-size="12.00">08 人工确认内容、价格、库存和配送</text>
</g>
<!-- pass&#45;&gt;approval -->
<g id="edge11" class="edge">
<title>pass&#45;&gt;approval</title>
<path fill="none" stroke="#111111" stroke-width="1.8" d="M173.03,-279.07C173.03,-279.07 173.03,-220.81 173.03,-220.81"/>
<polygon fill="#111111" stroke="#111111" stroke-width="1.8" points="175.48,-220.81 173.03,-213.81 170.58,-220.81 175.48,-220.81"/>
<text xml:space="preserve" text-anchor="middle" x="176.48" y="-240.06" font-family="PingFang SC" font-size="10.00">是</text>
</g>
<!-- repair&#45;&gt;redteam -->
<g id="edge13" class="edge">
<title>repair&#45;&gt;redteam</title>
<path fill="none" stroke="#111111" stroke-width="1.8" d="M361.12,-217.47C361.12,-217.47 361.12,-357.12 361.12,-357.12"/>
<polygon fill="#111111" stroke="#111111" stroke-width="1.8" points="358.67,-357.12 361.12,-364.12 363.57,-357.12 358.67,-357.12"/>
<text xml:space="preserve" text-anchor="middle" x="412.48" y="-297.21" font-family="PingFang SC" font-size="10.00">同任务、同故障复测</text>
</g>
<!-- output -->
<g id="node13" class="node">
<title>output</title>
<polygon fill="#ff9ff3" stroke="#111111" stroke-width="2.4" points="234.6,-130.66 18.6,-130.66 18.6,-81.76 234.6,-81.76 234.6,-130.66"/>
<text xml:space="preserve" text-anchor="middle" x="126.6" y="-112.06" font-family="PingFang SC" font-size="12.00">09 导出 Listing、Feed、Manifest</text>
<text xml:space="preserve" text-anchor="middle" x="126.6" y="-94.81" font-family="PingFang SC" font-size="12.00">和完整测试报告</text>
</g>
<!-- approval&#45;&gt;output -->
<g id="edge14" class="edge">
<title>approval&#45;&gt;output</title>
<path fill="none" stroke="#111111" stroke-width="1.8" d="M126.6,-173.05C126.6,-173.05 126.6,-141.46 126.6,-141.46"/>
<polygon fill="#111111" stroke="#111111" stroke-width="1.8" points="129.05,-141.46 126.6,-134.46 124.15,-141.46 129.05,-141.46"/>
</g>
<!-- end -->
<g id="node14" class="node">
<title>end</title>
<ellipse fill="#1dd1a1" stroke="#111111" stroke-width="2.4" cx="126.6" cy="-22.38" rx="126.6" ry="22.38"/>
<text xml:space="preserve" text-anchor="middle" x="126.6" y="-19.6" font-family="PingFang SC" font-size="12.00">完成：形成可审查的发布文件</text>
</g>
<!-- output&#45;&gt;end -->
<g id="edge15" class="edge">
<title>output&#45;&gt;end</title>
<path fill="none" stroke="#111111" stroke-width="1.8" d="M126.6,-80.6C126.6,-80.6 126.6,-55.56 126.6,-55.56"/>
<polygon fill="#111111" stroke="#111111" stroke-width="1.8" points="129.05,-55.56 126.6,-48.56 124.15,-55.56 129.05,-55.56"/>
</g>
</g>
</svg>
